<svg height="682.66669pt" viewBox="-21 -21 682.66669 682.66669" width="682.66669pt" xmlns="http://www.w3.org/2000/svg"><path d="m604.671875 0h-569.375c-19.496094.0117188-35.30078125 15.824219-35.296875 35.328125v569.375c.0117188 19.496094 15.824219 35.300781 35.328125 35.296875h306.546875v-247.5h-83.125v-96.875h83.125v-71.292969c0-82.675781 50.472656-127.675781 124.222656-127.675781 35.324219 0 65.679688 2.632812 74.527344 3.808594v86.410156h-50.855469c-40.125 0-47.894531 19.066406-47.894531 47.050781v61.699219h95.9375l-12.5 96.875h-83.4375v247.5h162.796875c19.507813.003906 35.324219-15.804688 35.328125-35.3125 0-.003906 0-.007812 0-.015625v-569.375c-.007812-19.496094-15.824219-35.30078125-35.328125-35.296875zm0 0"/></svg>