<svg xmlns="http://www.w3.org/2000/svg" x="0px" y="0px"
	 width="543.284px" height="543.284px" viewBox="0 0 543.284 543.284" style="enable-background:new 0 0 543.284 543.284;"
	 xml:space="preserve">
		<path d="M99.049,543.284h345.192h29.364h69.676v-69.688v-17.857V87.546v-17.87V0h-69.676h-29.364H99.049H69.686H0.003v69.676
			v17.876v368.186v17.857v69.688h69.676H99.049z M371.389,84.884c0-6.604,2.351-12.307,7.075-17.161
			c4.712-4.822,10.483-7.24,17.332-7.24h61.543c6.836,0,12.613,2.417,17.331,7.24c4.713,4.847,7.075,10.557,7.075,17.161v58.36
			c0,6.836-2.362,12.625-7.075,17.326c-4.718,4.725-10.495,7.075-17.331,7.075h-61.55c-6.842,0-12.619-2.35-17.331-7.075
			c-4.719-4.7-7.075-10.49-7.075-17.326v-58.36H371.389z M349.277,216.599c21.335,20.63,32.008,45.563,32.008,74.798
			c0,29.248-10.673,54.187-32.008,74.805c-21.347,20.643-47.105,30.949-77.283,30.949c-29.951,0-55.588-10.307-76.928-30.949
			c-21.347-20.612-32.008-45.551-32.008-74.805c0-29.235,10.667-54.174,32.008-74.798c21.34-20.631,46.983-30.949,76.928-30.949
			C302.178,185.65,327.931,195.975,349.277,216.599z M146.057,84.884c0-6.604,2.35-12.307,7.075-17.161
			c4.712-4.822,10.49-7.24,17.332-7.24h12.956c6.836,0,12.613,2.417,17.332,7.24c4.718,4.847,7.075,10.557,7.075,17.161v58.36
			c0,6.836-2.356,12.625-7.075,17.326c-4.719,4.725-10.496,7.075-17.332,7.075h-12.956c-6.842,0-12.62-2.35-17.332-7.075
			c-4.718-4.7-7.075-10.49-7.075-17.326V84.884z M60.487,84.884c0-6.604,2.356-12.307,7.075-17.161
			c4.712-4.822,10.484-7.24,17.332-7.24H97.85c6.836,0,12.613,2.417,17.332,7.24c4.718,4.847,7.075,10.557,7.075,17.161v58.36
			c0,6.836-2.356,12.625-7.075,17.326c-4.719,4.725-10.496,7.075-17.332,7.075H84.894c-6.842,0-12.62-2.35-17.332-7.075
			c-4.718-4.7-7.075-10.49-7.075-17.326V84.884z M60.487,472.984v-229.2h49.872c-4.719,14.853-7.075,30.312-7.075,46.341
			c0,45.263,16.5,83.893,49.517,115.833c33.011,31.946,72.742,47.913,119.199,47.913c30.649,0,58.942-7.295,84.885-21.928
			c25.937-14.603,46.451-34.486,61.543-59.591c15.086-25.116,22.632-52.527,22.632-82.234c0-16.028-2.356-31.487-7.075-46.34h47.748
			v229.207c0,6.132-2.123,11.261-6.364,15.379c-4.241,4.144-9.314,6.188-15.208,6.188H82.06c-6.132,0-11.261-2.044-15.386-6.188
			C62.549,484.245,60.487,479.116,60.487,472.984z"/>
</svg>
