<svg xmlns="http://www.w3.org/2000/svg" width="572" height="572"><path d="M286.049 128.572c-107.663 0-209.738 52.155-273.038 139.524L0 286.052l13.011 17.957c63.299 87.362 165.375 139.518 273.038 139.518s209.738-52.155 273.038-139.524l13.011-17.956-13.011-17.956c-63.3-87.358-165.375-139.519-273.038-139.519zm84.076 115.582c0 17.02-13.794 30.82-30.82 30.82s-30.82-13.801-30.82-30.82 13.801-30.82 30.82-30.82 30.82 13.8 30.82 30.82zm-84.076 138.172c-80.466 0-157.125-35.612-209.292-96.274 29.192-33.941 66.053-60.025 106.953-76.433-6.279 14.002-9.859 29.486-9.859 45.833 0 61.965 50.233 112.198 112.198 112.198s112.198-50.233 112.198-112.198c0-16.347-3.574-31.824-9.859-45.833 40.899 16.408 77.761 42.491 106.953 76.433-52.167 60.661-128.826 96.274-209.292 96.274z"/></svg>