<?xml version="1.0" encoding="iso-8859-1"?>
<!DOCTYPE svg PUBLIC "-//W3C//DTD SVG 1.1//EN" "http://www.w3.org/Graphics/SVG/1.1/DTD/svg11.dtd">
<svg version="1.1" id="Capa_1" xmlns="http://www.w3.org/2000/svg" xmlns:xlink="http://www.w3.org/1999/xlink" x="0px" y="0px"
	 width="582.207px" height="582.207px" viewBox="0 0 582.207 582.207" style="enable-background:new 0 0 582.207 582.207;"
	 xml:space="preserve">
		<path d="M291.104,0C130.589,0,0,130.588,0,291.104c0,160.516,130.589,291.104,291.104,291.104s291.103-130.588,291.103-291.104
			C582.207,130.588,451.619,0,291.104,0z M291.104,521.008c-126.77,0-229.904-103.141-229.904-229.904
			C61.2,164.34,164.334,61.2,291.104,61.2c126.769,0,229.904,103.141,229.904,229.904
			C521.008,417.867,417.873,521.008,291.104,521.008z"/>
		<path d="M389.752,324.006V125.105c0-6.249-5.066-11.316-11.316-11.316H203.771c-6.249,0-11.316,5.067-11.316,11.316v198.893
			h-53.672c-15.618,0-19.327,8.955-8.28,20L271.11,484.605c11.047,11.047,28.955,11.047,40,0L451.711,344
			c11.047-11.047,7.338-20.002-8.279-20.002h-53.68V324.006z"/>
</svg>
